<svg width="21" height="21" viewBox="0 0 21 21" fill="none" xmlns="http://www.w3.org/2000/svg">
<path d="M20.262 14.3671C19.4971 16.2978 18.1769 17.9584 16.4683 19.1388C14.7597 20.3192 12.7395 20.9665 10.663 20.9987C8.58657 21.031 6.54718 20.4468 4.80276 19.3199C3.05834 18.1931 1.68723 16.5744 0.86282 14.6683L3.54353 13.5088C4.13862 14.8847 5.12834 16.0532 6.38753 16.8666C7.64671 17.6799 9.11882 18.1016 10.6177 18.0784C12.1165 18.0551 13.5748 17.5879 14.8082 16.7358C16.0415 15.8837 16.9944 14.6851 17.5465 13.2914L20.262 14.3671Z" fill="#00FF66"/>
<path d="M8.332 15.168C7.756 15.168 7.312 15.064 7 14.856C6.696 14.648 6.468 14.416 6.316 14.16H6.124V15H4.912V6.6H6.148V9.888H6.34C6.436 9.728 6.564 9.576 6.724 9.432C6.884 9.28 7.096 9.156 7.36 9.06C7.624 8.964 7.948 8.916 8.332 8.916C8.828 8.916 9.284 9.036 9.7 9.276C10.116 9.516 10.448 9.864 10.696 10.32C10.944 10.776 11.068 11.32 11.068 11.952V12.132C11.068 12.772 10.94 13.32 10.684 13.776C10.436 14.224 10.104 14.568 9.688 14.808C9.28 15.048 8.828 15.168 8.332 15.168ZM7.972 14.088C8.508 14.088 8.948 13.916 9.292 13.572C9.644 13.228 9.82 12.736 9.82 12.096V11.988C9.82 11.356 9.648 10.868 9.304 10.524C8.96 10.18 8.516 10.008 7.972 10.008C7.444 10.008 7.004 10.18 6.652 10.524C6.308 10.868 6.136 11.356 6.136 11.988V12.096C6.136 12.736 6.308 13.228 6.652 13.572C7.004 13.916 7.444 14.088 7.972 14.088ZM11.0395 15V6.6H12.2755V11.388H12.4675L14.7955 9.084H16.4395L13.4515 11.952L16.5355 15H14.9035L12.4675 12.54H12.2755V15H11.0395Z" fill="black"/>
</svg>
